<svg width="133" height="40" viewBox="0 0 133 40" fill="none" xmlns="http://www.w3.org/2000/svg">
<path d="M8.08 35.48C6.13333 35.48 4.37333 35.04 2.8 34.16C0.933333 33.0667 0 31.6 0 29.76C0 28.7467 0.36 27.7467 1.08 26.76C3.16 23.88 7.38667 22.08 13.76 21.36C14.32 21.3067 14.92 21.2667 15.56 21.24C16.2 21.1867 16.88 21.16 17.6 21.16C18.4 21.16 19.3467 21.2 20.44 21.28C21.5333 21.3333 22.7733 21.4267 24.16 21.56C24.3733 21.16 24.5733 20.76 24.76 20.36C24.9733 19.96 25.1733 19.5733 25.36 19.2C25.3333 18.5867 25.1333 18.0667 24.76 17.64C24.4133 17.2133 23.9333 17.0133 23.32 17.04C23.48 16.1067 24.0267 15.64 24.96 15.64C25.8667 15.64 26.24 16.24 26.08 17.44C27.4133 14.0267 28.1067 10.96 28.16 8.24C27.4933 8.10667 26.6667 7.94667 25.68 7.76001C24.6933 7.57334 23.5467 7.36001 22.24 7.12001C21.0133 6.90667 19.9067 6.74667 18.92 6.64001C17.96 6.50667 17.1333 6.44001 16.44 6.44001C12.44 6.44001 9.65333 7.58667 8.08 9.88001C7.46667 10.7867 7.16 11.72 7.16 12.68C7.16 14.0933 7.77333 15.2267 9 16.08C10.0667 16.7733 11.36 17.12 12.88 17.12C13.6 17.12 14.3067 17.0133 15 16.8C15.6933 16.5867 16.3467 16.2667 16.96 15.84C18.3467 14.8533 19.04 13.6533 19.04 12.24C19.04 11.3067 18.5867 10.56 17.68 10C16.9333 9.44001 16.0667 9.16 15.08 9.16C13.2133 9.16 12.12 9.62667 11.8 10.56L11.68 11.12C11.6267 11.2533 11.5467 11.4 11.44 11.56C11.4133 11.5333 11.4 11.48 11.4 11.4C11.4 10.52 11.8133 9.82667 12.64 9.32001C12.9867 9.10667 13.36 8.96 13.76 8.88001C14.1867 8.77334 14.6267 8.72001 15.08 8.72001C16.2533 8.72001 17.2267 9.02667 18 9.64001C18.9333 10.3067 19.4 11.1733 19.4 12.24C19.4 13.84 18.6933 15.1467 17.28 16.16C15.92 17.12 14.4533 17.6 12.88 17.6C11.0933 17.6 9.57333 17.12 8.32 16.16C6.98667 15.12 6.32 13.7067 6.32 11.92C6.32 10.88 6.6 9.88001 7.16 8.92C8.68 6.38667 11.4667 5.12001 15.52 5.12001C16.2133 5.12001 17.0533 5.18667 18.04 5.32C19.0267 5.45334 20.16 5.66667 21.44 5.96001L28.16 7.56001C28.1333 6.09334 27.7867 4.81334 27.12 3.72001C27.04 3.50667 27 3.33334 27 3.20001C27 2.98667 27.0933 2.88 27.28 2.88C27.5467 2.88 27.8133 3.13334 28.08 3.64C28.64 4.54667 28.9467 5.90667 29 7.72C29.9333 7.90667 30.8 8.06667 31.6 8.20001C32.4267 8.33334 33.1733 8.42667 33.84 8.48001C34.7467 7.22667 35.64 6.28001 36.52 5.64001C37.64 4.81334 38.6667 4.4 39.6 4.4C41.0667 4.4 41.8 4.97334 41.8 6.12001C41.8 7.93334 39.8533 8.89334 35.96 9C34.2533 11.7733 33.4 15.4267 33.4 19.96C33.4 20.3067 33.4 20.6533 33.4 21C33.4267 21.3467 33.4533 21.6933 33.48 22.04C37.0267 21.9067 39.2933 20.9333 40.28 19.12C40.3867 18.9067 40.4933 18.6267 40.6 18.28C40.7067 17.9333 40.8133 17.5067 40.92 17C40.9733 16.84 41.0533 16.76 41.16 16.76C41.32 16.76 41.4 16.8667 41.4 17.08C41.4 17.5067 41.2533 18.0933 40.96 18.84C40 21.4533 37.5333 22.8133 33.56 22.92C33.8533 25.16 34.4267 27.0667 35.28 28.64C36.5067 30.7733 38.08 31.84 40 31.84C41.04 31.84 41.8533 31.3867 42.44 30.48C42.4933 30.4267 42.8533 29.5467 43.52 27.84C43.5733 27.76 43.6267 27.72 43.68 27.72C43.7333 27.72 43.76 27.8 43.76 27.96C43.76 29.0533 43.3733 30.0667 42.6 31C41.7733 31.9067 40.8267 32.36 39.76 32.36H39.52C39.44 32.3333 39.36 32.32 39.28 32.32C38.72 32.32 38.4 32.6533 38.32 33.32C38.2133 34.04 38.0933 34.4 37.96 34.4C37.8267 34.4 37.6933 34.3467 37.56 34.24C34.1467 31.8933 32.1733 28.12 31.64 22.92C30.92 22.8933 30.0933 22.84 29.16 22.76C28.2533 22.68 27.24 22.5867 26.12 22.48C22.2 28.9867 17.9067 33.0133 13.24 34.56C11.4533 35.1733 9.73333 35.48 8.08 35.48ZM35 8.56001C35.32 8.08001 35.6267 7.69334 35.92 7.40001C36.0267 7.29334 36.1867 7.20001 36.4 7.12001C36.6133 7.01334 36.8933 6.89334 37.24 6.76C37.6133 6.62667 37.9067 6.52001 38.12 6.44001C38.36 6.36001 38.5467 6.32001 38.68 6.32001C38.7067 6.32001 38.72 6.33334 38.72 6.36001C38.72 6.36001 38.7067 6.36001 38.68 6.36001C38.68 6.36001 38.6667 6.37334 38.64 6.4C38.2133 6.64 37.8 6.93334 37.4 7.28001C37.0267 7.62667 36.68 8.04001 36.36 8.52001C39.0267 8.33334 40.36 7.61334 40.36 6.36001C40.36 5.56001 39.8667 5.16001 38.88 5.16001C38.2667 5.16001 37.5733 5.42667 36.8 5.96001C36.0533 6.49334 35.24 7.34667 34.36 8.52001C34.4667 8.52001 34.5733 8.52001 34.68 8.52001C34.7867 8.52001 34.8933 8.53334 35 8.56001ZM26.08 21.68C26.3467 21.28 26.68 20.72 27.08 20C27.48 19.28 27.9733 18.4 28.56 17.36C29.04 16.4 29.6933 15.2267 30.52 13.84C31.3467 12.4533 32.3333 10.8267 33.48 8.96001C32.8133 8.90667 32.1067 8.84001 31.36 8.76C30.64 8.65334 29.8533 8.53334 29 8.4C28.9733 9.46667 28.84 10.6267 28.6 11.88C28.36 13.1067 27.9867 14.3867 27.48 15.72C27.16 16.6533 26.76 17.6133 26.28 18.6C25.8267 19.56 25.32 20.5467 24.76 21.56L26.08 21.68ZM31.56 22.04C31.5333 21.8 31.52 21.5467 31.52 21.28C31.52 21.0133 31.52 20.7467 31.52 20.48C31.52 15.9467 32.56 12.12 34.64 9C34.5333 9 34.4267 9 34.32 9C34.2133 9 34.1067 8.98667 34 8.96001C33.6 9.54667 32.9733 10.56 32.12 12C31.2933 13.4133 30.2267 15.28 28.92 17.6C28.44 18.5067 28 19.3067 27.6 20C27.2267 20.6667 26.8933 21.24 26.6 21.72C27.6133 21.8267 28.5333 21.9067 29.36 21.96C30.1867 21.9867 30.92 22.0133 31.56 22.04ZM8.56 34.88C10 34.88 11.5333 34.64 13.16 34.16C17.64 32.72 21.8 28.8133 25.64 22.44L24.36 22.28C20.6533 28.5733 16.84 31.9867 12.92 32.52C13.5333 32.12 13.84 31.2667 13.84 29.96V29.88C14.24 29.08 14.68 28.68 15.16 28.68C15.24 28.68 15.28 28.7067 15.28 28.76C15.28 30.1467 15.1733 30.9867 14.96 31.28L13.96 32C17.4 30.96 20.68 27.6933 23.8 22.2C20.76 21.88 18.3733 21.72 16.64 21.72C13.52 21.72 10.84 22.1333 8.6 22.96C6.86667 23.6 5.42667 24.4667 4.28 25.56C2.86667 26.8933 2.16 28.36 2.16 29.96C2.16 31.56 2.85333 32.8267 4.24 33.76C5.49333 34.5067 6.93333 34.88 8.56 34.88Z" fill="black"/>
<path d="M47.4097 32.48C44.7164 32.48 43.3697 30.4933 43.3697 26.52C43.3697 22.6267 44.6497 18.4 47.2097 13.84C49.7164 9.30667 52.0897 7.04001 54.3297 7.04001C55.1297 7.04001 55.663 7.58667 55.9297 8.68001V9.2C55.9297 11.12 54.4497 14.36 51.4897 18.92C50.2364 20.8933 49.0497 22.6133 47.9297 24.08C46.8364 25.5467 45.8097 26.7867 44.8497 27.8C45.1697 30.2 46.2764 31.4 48.1697 31.4C49.3164 31.4 50.2897 31.08 51.0897 30.44C51.8897 29.7733 52.743 28.88 53.6497 27.76C53.8097 27.6 53.9164 27.52 53.9697 27.52C54.0497 27.52 54.0897 27.5867 54.0897 27.72C54.0897 27.9067 53.9964 28.1467 53.8097 28.44C52.663 29.9067 51.583 30.9467 50.5697 31.56C49.5564 32.1733 48.503 32.48 47.4097 32.48ZM44.8897 26.8C46.3297 25.3867 48.2097 22.5867 50.5297 18.4C52.983 13.9467 54.2097 10.88 54.2097 9.2C54.2097 8.45334 53.9964 8.08 53.5697 8.08C51.9164 8.08 50.0364 10.4533 47.9297 15.2C46.943 17.5467 46.183 19.68 45.6497 21.6C45.143 23.52 44.8897 25.2533 44.8897 26.8Z" fill="black"/>
<path d="M57.3231 19.84C57.0031 19.84 56.7098 19.6933 56.4431 19.4C56.1765 19.1067 56.0431 18.8 56.0431 18.48C56.0431 17.7333 56.4565 17.36 57.2831 17.36C58.0831 17.36 58.4831 17.7467 58.4831 18.52C58.4831 19.4 58.0965 19.84 57.3231 19.84ZM56.8031 32.32C55.8965 32.32 55.1365 32.0133 54.5231 31.4C53.9365 30.76 53.6431 29.84 53.6431 28.64C53.6431 27.1733 54.0431 25.68 54.8431 24.16C55.1365 23.6 55.6431 23.32 56.3631 23.32C56.7898 23.32 57.0031 23.4533 57.0031 23.72C57.0031 23.8 56.9631 23.92 56.8831 24.08C55.9498 25.8667 55.4831 27.4 55.4831 28.68C55.4831 29.6133 55.6431 30.2933 55.9631 30.72C56.3098 31.1467 56.7765 31.36 57.3631 31.36C58.2965 31.36 59.2298 31.0133 60.1631 30.32C61.0965 29.6 62.0031 28.7333 62.8831 27.72C62.9631 27.5867 63.0831 27.52 63.2431 27.52C63.3498 27.52 63.4031 27.5733 63.4031 27.68C63.4031 27.76 63.3498 27.88 63.2431 28.04C63.1631 28.1733 63.0831 28.3067 63.0031 28.44C62.6565 28.8933 62.2431 29.36 61.7631 29.84C61.2831 30.32 60.7231 30.7733 60.0831 31.2C59.5765 31.5467 59.0298 31.8133 58.4431 32C57.8831 32.2133 57.3365 32.32 56.8031 32.32Z" fill="black"/>
<path d="M65.9819 32.28C64.9952 32.28 64.2219 31.9467 63.6619 31.28C63.1019 30.5867 62.8219 29.7333 62.8219 28.72C62.8219 27.4667 63.4352 26.08 64.6619 24.56C65.9152 23.0667 67.1685 22.32 68.4219 22.32C69.3819 22.32 69.8619 22.68 69.8619 23.4C69.8619 23.6667 69.6752 24.1467 69.3019 24.84C68.9552 25.56 68.7019 25.92 68.5419 25.92C68.4619 25.92 68.4085 25.8267 68.3819 25.64C68.3819 25.5333 68.4085 25.36 68.4619 25.12C68.5419 24.88 68.5819 24.7067 68.5819 24.6C68.5819 23.9333 68.1819 23.6 67.3819 23.6C66.5019 23.6 65.7419 24.16 65.1019 25.28C64.5419 26.2667 64.2619 27.2533 64.2619 28.24C64.2619 30.2133 65.0885 31.2 66.7419 31.2C68.0752 31.2 69.1952 30.88 70.1019 30.24C71.0085 29.5733 71.9019 28.7333 72.7819 27.72C72.9152 27.5867 73.0352 27.52 73.1419 27.52C73.2485 27.52 73.3019 27.5733 73.3019 27.68C73.3019 27.7867 73.2485 27.9067 73.1419 28.04C73.0619 28.1733 72.9819 28.3067 72.9019 28.44C72.5552 28.8933 72.1285 29.3733 71.6219 29.88C71.1419 30.3867 70.5952 30.8267 69.9819 31.2C69.2352 31.6267 68.5285 31.9067 67.8619 32.04C67.1952 32.2 66.5685 32.28 65.9819 32.28Z" fill="black"/>
<path d="M76.7447 32.32C75.6514 32.32 74.7047 32.0133 73.9047 31.4C73.1314 30.76 72.7447 29.8 72.7447 28.52C72.7447 27.1067 73.2114 25.6533 74.1447 24.16C74.6247 23.3867 75.2114 22.7733 75.9047 22.32C76.598 21.84 77.2114 21.6 77.7447 21.6C78.518 21.6 78.9047 22.0667 78.9047 23C78.9047 23.8 78.3714 24.7733 77.3047 25.92C76.318 26.9333 75.3847 27.6267 74.5047 28C74.478 28.1067 74.4514 28.2267 74.4247 28.36C74.4247 28.4667 74.4247 28.5867 74.4247 28.72C74.4247 30.4 75.4247 31.24 77.4247 31.24C78.5714 31.24 79.638 30.8933 80.6247 30.2C81.638 29.48 82.518 28.6667 83.2647 27.76C83.398 27.6 83.518 27.52 83.6247 27.52C83.7314 27.52 83.7847 27.5733 83.7847 27.68C83.7847 27.7867 83.7314 27.9333 83.6247 28.12C83.518 28.28 83.438 28.3867 83.3847 28.44C82.958 29.0267 82.5047 29.5467 82.0247 30C81.5714 30.4533 80.958 30.8933 80.1847 31.32C79.6247 31.6667 79.038 31.92 78.4247 32.08C77.838 32.24 77.278 32.32 76.7447 32.32ZM74.6647 27.16C75.0114 26.9733 75.3447 26.76 75.6647 26.52C76.0114 26.2533 76.3447 25.9467 76.6647 25.6C77.3847 24.7467 77.7447 24 77.7447 23.36C77.7447 22.96 77.6247 22.76 77.3847 22.76C77.1714 22.76 76.8914 22.9467 76.5447 23.32C76.2247 23.6667 75.918 24.1067 75.6247 24.64C75.118 25.68 74.798 26.52 74.6647 27.16Z" fill="black"/>
<path d="M119.68 39.2C119.573 39.2 119.413 39.16 119.2 39.08C112.32 36.6267 107.48 32.4133 104.68 26.44C104.493 26.0667 104.333 25.68 104.2 25.28C104.067 24.88 103.933 24.5067 103.8 24.16C103.213 24.2133 102.64 24.2667 102.08 24.32C101.52 24.3467 100.96 24.36 100.4 24.36H99.4C97.8 30.1733 95.44 33.68 92.32 34.88C91.76 35.0933 91.1733 35.2667 90.56 35.4C89.9467 35.5333 89.2933 35.6 88.6 35.6H88.48C87.4933 35.6 87 35.2 87 34.4C87 33.76 87.2 33.44 87.6 33.44C87.6533 33.44 88 33.68 88.64 34.16C89.28 34.64 89.9067 34.88 90.52 34.88C93 34.88 95.3733 31.32 97.64 24.2L96.08 23.96C94.7467 28.1733 93.4267 31.0133 92.12 32.48C91.9867 32.6133 91.8667 32.68 91.76 32.68C91.68 32.68 91.64 32.6133 91.64 32.48C91.64 32.3733 91.6933 32.2533 91.8 32.12C92.4133 31.4 93.0267 30.3467 93.64 28.96C94.2533 27.5733 94.8533 25.8533 95.44 23.8C93.52 23.2667 92.12 22.4533 91.24 21.36C90.68 20.5867 90.4 19.76 90.4 18.88C90.4 17.84 90.92 16.72 91.96 15.52C93 14.32 93.9467 13.72 94.8 13.72C94.9867 13.72 95.0933 13.76 95.12 13.84C95.0933 13.84 95.0667 13.8533 95.04 13.88C92.8 14.9467 91.68 16.2667 91.68 17.84C91.68 18.64 91.9467 19.4267 92.48 20.2C93.1733 21.24 94.2667 22.0933 95.76 22.76C95.9733 21.96 96.1733 21.16 96.36 20.36C96.5467 19.5333 96.7333 18.7067 96.92 17.88C96.76 18.04 96.56 18.2133 96.32 18.4C96.1067 18.5867 95.8533 18.7867 95.56 19C95.08 18.68 94.84 18.1867 94.84 17.52C94.84 17.2533 94.9867 16.92 95.28 16.52C95.5733 16.0933 95.8267 15.88 96.04 15.88C96.28 16.76 96.6133 17.2533 97.04 17.36C97.1733 16.8267 97.28 16.32 97.36 15.84C97.4667 15.3333 97.5467 14.88 97.6 14.48C97.76 13.28 97.88 12.16 97.96 11.12C98.0667 10.08 98.12 9.10665 98.12 8.19998C98.12 7.82665 98.1067 7.46665 98.08 7.11998C98.08 6.77332 98.0667 6.43998 98.04 6.11998C96.7067 6.67998 95.6267 7.11998 94.8 7.43998C93.9733 7.75998 93.4133 7.97332 93.12 8.07998C91.28 8.71999 89.6667 9.03999 88.28 9.03999C87.1867 9.03999 86.2267 8.71999 85.4 8.07998C84.6 7.41332 84.2 6.54665 84.2 5.47998C84.2 4.97332 84.28 4.46665 84.44 3.95998C84.6267 3.42665 84.88 2.87998 85.2 2.31998C85.3333 2.13332 85.4667 2.03998 85.6 2.03998C85.7067 2.03998 85.76 2.10665 85.76 2.23999C85.76 2.23999 85.5733 2.58665 85.2 3.27998C85.0133 3.57332 84.88 3.87998 84.8 4.19998C84.7467 4.49332 84.72 4.78665 84.72 5.07998C84.72 6.65332 85.68 7.43998 87.6 7.43998C88.2133 7.43998 88.9467 7.37332 89.8 7.23999C90.68 7.10665 91.6667 6.86665 92.76 6.51998L97.84 4.87998C97.36 2.13332 96.1867 0.759985 94.32 0.759985C94.2133 0.759985 94.1067 0.759985 94 0.759985C93.92 0.759985 93.8267 0.773319 93.72 0.799985C94.44 1.11999 94.8 1.69332 94.8 2.51998C94.8 3.29332 94.56 3.79998 94.08 4.03998C93.84 2.43998 93.04 1.69332 91.68 1.79998C92.1067 0.839984 93 0.359985 94.36 0.359985C96.52 0.359985 97.9333 1.79998 98.6 4.67998C101.32 3.87998 103.667 3.47998 105.64 3.47998C105.747 3.47998 105.853 3.47998 105.96 3.47998C106.093 3.47998 106.213 3.49332 106.32 3.51999C107.973 2.02665 109.52 1.27999 110.96 1.27999C111.6 1.27999 112.253 1.51999 112.92 1.99998C113.587 2.39998 113.92 2.91999 113.92 3.55999C113.92 4.03999 113.8 4.27998 113.56 4.27998C113.507 4.27998 113.16 3.89332 112.52 3.11998C111.933 2.34665 111.2 1.95998 110.32 1.95998C109.173 1.95998 108.08 2.49332 107.04 3.55999C110.027 3.74665 112.48 4.54665 114.4 5.95998C116.667 7.63999 117.8 9.89332 117.8 12.72C117.8 14.2933 117.333 15.8533 116.4 17.4C114.373 20.76 110.8 22.92 105.68 23.88C106.213 25.3733 106.987 26.84 108 28.28C109.04 29.6933 110.307 31.08 111.8 32.44C114.893 35.24 117.707 36.64 120.24 36.64C122.107 36.64 123.04 35.88 123.04 34.36C123.04 34.2 123 33.9733 122.92 33.68C122.867 33.3867 122.84 33.1867 122.84 33.08C122.84 33 122.867 32.96 122.92 32.96C123.133 32.96 123.28 33.24 123.36 33.8C123.413 34.0133 123.453 34.2 123.48 34.36C123.533 34.5467 123.56 34.7067 123.56 34.84C123.56 36.4133 122.613 37.2 120.72 37.2H120.44C120.36 37.1733 120.267 37.16 120.16 37.16C119.707 37.16 119.48 37.32 119.48 37.64C119.48 37.8 119.547 38.04 119.68 38.36C119.813 38.68 119.88 38.8933 119.88 39C119.88 39.1333 119.813 39.2 119.68 39.2ZM97.84 23.4C98.1333 22.4667 98.4133 21.4666 98.68 20.4C98.9733 19.3333 99.2533 18.1867 99.52 16.96C100.853 11.3067 102.92 7.01332 105.72 4.07999C104.813 4.10665 103.773 4.26665 102.6 4.55998C101.453 4.85332 100.187 5.26665 98.8 5.79998C98.8533 6.22665 98.8933 6.65332 98.92 7.07998C98.9467 7.50665 98.96 7.97332 98.96 8.47999C98.96 9.49332 98.8933 10.6 98.76 11.8C98.6533 13 98.4667 14.2667 98.2 15.6C97.9867 16.7467 97.7333 17.9333 97.44 19.16C97.1467 20.3867 96.7867 21.68 96.36 23.04L97.84 23.4ZM101 23.76C101.453 23.76 101.893 23.7467 102.32 23.72C102.773 23.6933 103.213 23.6533 103.64 23.6C103.48 22.96 103.4 22.36 103.4 21.8C103.4 21.5867 103.427 21.3467 103.48 21.08C103.56 20.7333 103.787 20.2667 104.16 19.68C104.56 19.0667 104.907 18.76 105.2 18.76C105.36 18.76 105.48 18.8667 105.56 19.08C105.267 19.6667 105.12 20.3067 105.12 21C105.12 21.3467 105.147 21.72 105.2 22.12C105.28 22.4933 105.387 22.88 105.52 23.28C109.813 22.4 112.84 20.3333 114.6 17.08C115.4 15.64 115.8 14.16 115.8 12.64C115.8 9.99999 114.88 7.90665 113.04 6.35998C111.36 4.91998 109.187 4.15998 106.52 4.07999C105.133 5.83999 103.76 8.90665 102.4 13.28C102.293 13.6 102 14.6267 101.52 16.36C101.067 18.0933 100.427 20.5333 99.6 23.68C99.84 23.7067 100.08 23.7333 100.32 23.76C100.56 23.76 100.787 23.76 101 23.76Z" fill="white"/>
<path d="M127.779 32.16C127.032 32.16 126.512 31.88 126.219 31.32C125.925 30.76 125.779 29.96 125.779 28.92C125.779 28.7866 125.779 28.6533 125.779 28.52C125.779 28.36 125.792 28.2133 125.819 28.08C125.419 28.8533 124.765 29.6133 123.859 30.36C122.872 31.24 122.005 31.68 121.259 31.68C120.779 31.68 120.352 31.4 119.979 30.84C119.685 30.3067 119.539 29.7733 119.539 29.24C119.539 28.3333 119.765 27.3067 120.219 26.16C120.699 24.72 121.312 24 122.059 24C122.325 24 122.472 24.1733 122.499 24.52C121.459 26.3067 120.939 27.7333 120.939 28.8C120.939 29.84 121.259 30.36 121.899 30.36C123.259 30.36 124.739 28.8933 126.339 25.96C126.392 25.8 126.472 25.6133 126.579 25.4C126.712 25.16 126.859 24.9067 127.019 24.64C127.099 24.4 127.459 24.28 128.099 24.28C128.312 24.28 128.419 24.36 128.419 24.52L127.979 25.76C127.765 26.3466 127.619 26.9067 127.539 27.44C127.459 27.9733 127.419 28.4666 127.419 28.92C127.419 30.3866 127.765 31.12 128.459 31.12C128.992 31.12 129.645 30.7867 130.419 30.12C131.219 29.4533 131.952 28.6666 132.619 27.76C132.699 27.68 132.765 27.64 132.819 27.64C132.925 27.64 132.979 27.7333 132.979 27.92C132.979 28.1066 132.912 28.28 132.779 28.44C131.712 29.8533 130.765 30.8267 129.939 31.36C129.139 31.8933 128.419 32.16 127.779 32.16Z" fill="white"/>
</svg>
